# xmcd
#
# Track frame offsets: 
#        150
#        12810
#        44233
#        63975
#        86923
#        106366
#        118088
#        120208
#        142829
#        168650
#        192132
#        207894
#
# Disc length: 2812 seconds
#
# Revision: 0
# Processed by: cddbd v1.5.2PL0 Copyright (c) Steve Scherf et al.
# Submitted via: ExactAudioCopy v0.99pb4
#
DISCID=a40afa0c
DTITLE=Boris Luna - Project Luna
DYEAR=2008
DGENRE=Latin
TTITLE0=Luna Nueva
TTITLE1=Talia
TTITLE2=Mexican Flyer
TTITLE3=Cuarto Creciente
TTITLE4=Mi Rialidad
TTITLE5=Media Luna
TTITLE6=Ecripse
TTITLE7=Deborah
TTITLE8=Estes
TTITLE9=Se Me Olvido que te Olvide
TTITLE10=Luna Llena
TTITLE11=Luna Nueva Interlude
EXTD=
EXTT0=
EXTT1=
EXTT2=
EXTT3=
EXTT4=
EXTT5=
EXTT6=
EXTT7=
EXTT8=
EXTT9=
EXTT10=
EXTT11=
PLAYORDER=
